<?xml version="1.0" encoding="utf-8"?>
<!-- Generator: Adobe Illustrator 16.0.0, SVG Export Plug-In . SVG Version: 6.00 Build 0)  -->
<!DOCTYPE svg PUBLIC "-//W3C//DTD SVG 1.1//EN" "http://www.w3.org/Graphics/SVG/1.1/DTD/svg11.dtd">
<svg version="1.1" id="Layer_1" xmlns="http://www.w3.org/2000/svg" xmlns:xlink="http://www.w3.org/1999/xlink" x="0px" y="0px"
	 width="360px" height="360px" viewBox="0 0 360 360" enable-background="new 0 0 360 360" xml:space="preserve">
<g>
	<path fill="#6A983F" d="M227.439,116.86c0.111,0.113,0.449,0.229,1.14,0.229c8.476,0,28.448-14.423,40.678-32.276
		c14.25-20.781,18.995-46.885,15.297-50.331c-0.125-0.051-0.394-0.093-0.936-0.093c-8.615,0-29.645,15.485-41.976,33.671
		c-10.162,14.743-17.257,36.463-15.186,46.401C226.805,116.213,227.328,116.813,227.439,116.86z"/>
	<path fill="#6A983F" d="M209.682,109.229c1.872,0,3.332-0.338,4.045-0.945c1.21-0.922,1.59-3.209,1.701-4.469
		c1.205-13.11-10.594-38.642-25.812-55.846c-16.692-18.953-44.455-36.185-58.205-36.185c-1.701,0-2.989,0.257-3.656,0.809
		c-0.723,0.538-1.256,2.016-1.423,3.99c-1.191,13.207,11.405,40.293,27.1,58.021C169.722,93.018,195.992,109.229,209.682,109.229z"
		/>
	<path fill="#ED1C24" d="M264.753,153.622c-22.869-21.423-51.508-32.226-84.947-32.226c-33.551,0-62.064,10.802-84.795,32.226
		c-22.878,21.49-34.093,48.022-34.093,81.152c0,33.203,11.214,59.788,34.093,81.305c22.73,21.345,51.244,32.137,84.795,32.137
		c33.769,0,62.416-10.792,85.179-32.137c22.911-21.517,34.098-48.102,34.098-81.305
		C299.082,201.645,287.877,175.112,264.753,153.622z M243.39,295.43c-16.979,15.913-38.352,23.968-63.533,23.968
		c-25.029,0-46.29-8.055-63.25-23.968c-17.058-16.053-25.427-35.877-25.427-60.646c0-24.714,8.369-44.501,25.427-60.53
		c16.96-15.983,38.222-24.037,63.25-24.037c24.94,0,46.299,8.054,63.357,24.037c17.252,16.029,25.617,35.816,25.617,60.53
		C268.831,259.553,260.484,279.377,243.39,295.43z"/>
	<path fill="#ED1C24" d="M178.074,173.607c-19.481,2.918-36.651,13.238-48.348,29.056s-16.53,35.258-13.611,54.737
		c0.971,6.477,6.542,11.125,12.898,11.125c0.644,0,1.296-0.048,1.952-0.146c7.133-1.068,12.048-7.718,10.979-14.85
		c-1.886-12.579,1.233-25.13,8.782-35.339c7.549-10.209,18.636-16.869,31.217-18.754c7.133-1.069,12.049-7.717,10.979-14.85
		C191.854,177.454,185.195,172.538,178.074,173.607z"/>
</g>
</svg>
